<svg xmlns="http://www.w3.org/2000/svg" xmlns:xlink="http://www.w3.org/1999/xlink" width="1280" height="585"><filter filterUnits="userSpaceOnUse" id="x" x="558" y="247" height="10" width="14"><feFlood flood-color="#fff" flood-opacity="1"/><feBlend in2="back" in="SourceGraphic"/></filter><filter filterUnits="userSpaceOnUse" id="u" x="518" y="247" height="10" width="14"><feFlood flood-color="#fff" flood-opacity="1"/><feBlend in2="back" in="SourceGraphic"/></filter><filter filterUnits="userSpaceOnUse" id="B" x="478" y="247" height="10" width="14"><feFlood flood-color="#fff" flood-opacity="1"/><feBlend in2="back" in="SourceGraphic"/></filter><linearGradient id="a" gradientUnits="userSpaceOnUse" x1="790" y1="655" x2="790" y2="585" gradientTransform="matrix(1 0 0 -1 116 664)"><stop offset="0" stop-color="#E7E7E7"/><stop offset="1" stop-color="#BDBDBD"/></linearGradient><path fill="url(#a)" d="M1272 79h-732v-64c0-3.3 2.7-6 6-6h720.3c3.3 0 5.601 2.7 5.601 6v64h.099z"/><rect x="540" y="79" fill="#969696" width="732" height="2"/><path fill="#EDEBE9" d="M675 90v-10h11c.1 0 4.8-.4 12-18.9 1.1-2.9 2.1-5.5 3-7.9 6.3-16.3 8.2-21.2 17.3-21.2h351.2c9.2 0 11.1 4.9 17.3 21.2.9 2.4 1.9 5 3 7.9 7.3 18.5 12 18.9 12 18.9h11v10h-437.8z"/><path fill="#9F9F9F" d="M1069.8 33c9.8 0 10.5 5.9 19.4 28.4 7.5 19.1 12.4 19.6 12.8 19.6h10v8h-436v-8h10c.5 0 5.4-.5 12.9-19.6 8.899-22.5 9.7-28.4 19.5-28.4h351.6m-.4-2h-351.2c-9.9 0-12 5.5-18.301 21.9-.899 2.3-1.899 5-3 7.9-6.499 16.4-10.699 18.2-11.199 18.3h-11.9v12h440v-12h-11.9c-.399-.1-4.699-1.9-11.199-18.3-1.101-2.9-2.2-5.5-3-7.9-6.301-16.4-8.401-21.9-18.301-21.9z"/><path opacity=".5" fill="#fff" enable-background="new" d="M1069.8 35c6.9 0 8.101 2.7 14.4 19.3.899 2.3 1.899 5 3 7.9 7.4 18.8 12.8 20.8 14.8 20.8h8v4h-432v-4h8c2 0 7.4-2 14.8-20.8l3.101-7.9c6.399-16.5 7.599-19.3 14.499-19.3h351.6m-.4-2h-351.2c-9.801 0-10.601 5.9-19.5 28.4-7.5 19.1-12.4 19.6-12.9 19.6h-10v8h436v-8h-10c-.5 0-5.4-.5-12.9-19.6-8.9-22.5-9.8-28.4-19.5-28.4z"/><linearGradient id="b" gradientUnits="userSpaceOnUse" x1="790" y1="583" x2="790" y2="513" gradientTransform="matrix(1 0 0 -1 116 664)"><stop offset="0" stop-color="#EDEBE9"/><stop offset="1" stop-color="#DADCDE"/></linearGradient><rect x="540" y="81" fill="url(#b)" width="732" height="70"/><path fill="#fff" d="M1211 137c0 1.7-1.3 3-3 3h-477c-1.7 0-3-1.3-3-3v-42c0-1.7 1.3-3 3-3h477c1.7 0 3 1.3 3 3v42z"/><path fill="#BDBEC0" d="M1208 93c1.1 0 2 .9 2 2v42c0 1.1-.9 2-2 2h-477.2c-1.1 0-1.8-.9-1.8-2v-42c0-1.1.7-2 1.8-2h477.2m0-2h-477.2c-2.2 0-3.8 1.8-3.8 4v42c0 2.2 1.6 4 3.8 4h477.2c2.2 0 4-1.8 4-4v-42c0-2.2-1.8-4-4-4z"/><rect x="540" y="81" fill="#fff" width="148" height="2"/><rect x="1102" y="81" fill="#fff" width="170" height="2"/><defs><path id="c" d="M702 115v-12l-3.4 3.4c-2.8-3.3-6.899-5.4-11.6-5.4-8.3 0-15 6.7-15 15s6.7 15 15 15c4.7 0 8.8-2.1 11.6-5.4l-3.6-3.6c-1.8 2.4-4.7 4-8 4-5.5 0-10-4.5-10-10s4.5-10 10-10c3.3 0 6.2 1.6 8 4l-5 5h12z"/></defs><clipPath id="d"><use xlink:href="#c" overflow="visible"/></clipPath><g clip-path="url(#d)"><path fill="#fff" d="M702 117v-12l-3.4 3.4c-2.8-3.3-6.899-5.4-11.6-5.4-8.3 0-15 6.7-15 15s6.7 15 15 15c4.7 0 8.8-2.1 11.6-5.4l-3.6-3.6c-1.8 2.4-4.7 4-8 4-5.5 0-10-4.5-10-10s4.5-10 10-10c3.3 0 6.2 1.6 8 4l-5 5h12z"/><path fill="#6D6D6D" d="M702 115v-12l-3.4 3.4c-2.8-3.3-6.899-5.4-11.6-5.4-8.3 0-15 6.7-15 15s6.7 15 15 15c4.7 0 8.8-2.1 11.6-5.4l-3.6-3.6c-1.8 2.4-4.7 4-8 4-5.5 0-10-4.5-10-10s4.5-10 10-10c3.3 0 6.2 1.6 8 4l-5 5h12z"/></g><defs><path id="e" d="M702 115v-12l-3.4 3.4c-2.8-3.3-6.899-5.4-11.6-5.4-8.3 0-15 6.7-15 15s6.7 15 15 15c4.7 0 8.8-2.1 11.6-5.4l-3.6-3.6c-1.8 2.4-4.7 4-8 4-5.5 0-10-4.5-10-10s4.5-10 10-10c3.3 0 6.2 1.6 8 4l-5 5h12z"/></defs><clipPath id="f"><use xlink:href="#e" overflow="visible"/></clipPath><g clip-path="url(#f)"><image overflow="visible" opacity=".4" enable-background="new" width="46" height="46" xlink:href="C0EDB4606F7F46C3.png" transform="translate(665 96)"/><path fill="#6D6D6D" d="M668 97v40h40v-40h-40zm34 18h-12l5-5c-1.8-2.4-4.7-4-8-4-5.5 0-10 4.5-10 10s4.5 10 10 10c3.3 0 6.2-1.6 8-4l3.6 3.6c-2.8 3.3-6.899 5.4-11.6 5.4-8.3 0-15-6.7-15-15s6.7-15 15-15c4.7 0 8.8 2.1 11.6 5.4l3.4-3.4v12z"/></g><polygon fill="#fff" points="572,105 558,118 572,131 576,127 570,121 588,121 590,118 588,115 570,115 576,109"/><polygon fill="#6D6D6D" points="572,103 558,116 572,129 576,125 570,119 588,119 590,116 588,113 570,113 576,107"/><defs><polygon id="g" points="572,103 558,116 572,129 576,125 570,119 588,119 590,116 588,113 570,113 576,107"/></defs><clipPath id="h"><use xlink:href="#g" overflow="visible"/></clipPath><g clip-path="url(#h)"><image overflow="visible" opacity=".4" enable-background="new" width="46" height="42" xlink:href="C0EDB4606F7F46C1.png" transform="translate(551 98)"/><path fill="#6D6D6D" d="M554 99v36h40v-36h-40zm34 20h-18l6 6-4 4-14-13 14-13 4 4-6 6h18l2 3-2 3z"/></g><g opacity=".3"><polygon fill="#fff" points="634,105 648,118 634,131 630,127 636,121 618,121 616,118 618,115 636,115 630,109"/><polygon fill="#6D6D6D" points="634,103 648,116 634,129 630,125 636,119 618,119 616,116 618,113 636,113 630,107"/><defs><polygon id="i" points="634,103 648,116 634,129 630,125 636,119 618,119 616,116 618,113 636,113 630,107"/></defs><clipPath id="j"><use xlink:href="#i" overflow="visible"/></clipPath><g clip-path="url(#j)"><image overflow="visible" opacity=".4" enable-background="new" width="46" height="42" xlink:href="C0EDB4606F7F46C7.png" transform="translate(609 98)"/><path fill="#6D6D6D" d="M612 99v36h40v-36h-40zm4 17l2-3h18l-6-6 4-4 14 13-14 13-4-4 6-6h-18l-2-3z"/></g></g><rect x="540" y="151" fill="#7A7A7A" width="732" height="2"/><image overflow="visible" opacity=".2" enable-background="new" width="34" height="42" xlink:href="C0EDB4606F7F46C0.png" transform="translate(739 97)"/><linearGradient id="k" gradientUnits="userSpaceOnUse" x1="640" y1="561" x2="640" y2="535" gradientTransform="matrix(1 0 0 -1 116 664)"><stop offset="0" stop-color="#FAFAFB"/><stop offset="1" stop-color="#E6E6E6"/></linearGradient><polygon fill="url(#k)" points="747,129 747,103 759.2,103 765,108.8 765,129"/><path fill="#fff" d="M758.2 105l4.8 4.7v17.3h-14v-22h9m2-4h-15v30h22v-23l-7-7z"/><linearGradient id="l" gradientUnits="userSpaceOnUse" x1="640" y1="563" x2="640" y2="533" gradientTransform="matrix(1 0 0 -1 116 664)"><stop offset="0" stop-color="#A3A3A3"/><stop offset="1" stop-color="#838384"/></linearGradient><path fill="url(#l)" d="M759.1 103l5.9 5.8v20.2h-18v-26h12.1m.9-2h-15v30h22v-23l-7-7z"/><text transform="translate(783 125.394)" fill="#00032E" font-family="'LucidaGrande'" font-size="26">localhost:3000/users/461</text><polygon fill="#fff" points="1063,54 1061,52 1056,57 1051,52 1049,54 1054,59 1049,64 1051,66 1056,61 1061,66 1063,64 1058,59"/><polygon fill="#908F90" points="1063,52 1061,50 1056,55 1051,50 1049,52 1054,57 1049,62 1051,64 1056,59 1061,64 1063,62 1058,57"/><image overflow="visible" opacity=".1" enable-background="new" width="88" height="50" xlink:href="C0EDB4606F7F46CE.png" transform="translate(1082 36)"/><path fill="#D0CFD0" d="M1156 71c1.1 0 1.5-.8 1-1.7 0 0-2.4-3.9-3.9-7.8-3.199-8.2-6.3-16.6-6.3-16.6-.399-1-1.6-1.9-2.7-1.9h-48c-1.1 0-1.699.8-1.3 1.9 0 0 3.101 8.4 6.3 16.6 1.5 3.9 3.9 7.8 3.9 7.8.6.9 1.9 1.7 3 1.7h48z"/><linearGradient id="m" gradientUnits="userSpaceOnUse" x1="1009.956" y1="623" x2="1009.956" y2="591" gradientTransform="matrix(1 0 0 -1 116 664)"><stop offset="0" stop-color="#B5B5B5"/><stop offset=".407" stop-color="#B3B3B3"/><stop offset=".646" stop-color="#aaa"/><stop offset=".841" stop-color="#9C9C9C"/><stop offset="1" stop-color="#8A8A8A"/></linearGradient><path fill="url(#m)" d="M1144 43c1.1 0 2.3.8 2.7 1.9 0 0 3.1 8.4 6.3 16.6 1.5 3.9 3.9 7.8 3.9 7.8.6.9.1 1.7-1 1.7h-48c-1.101 0-2.5-.8-3-1.7 0 0-2.4-3.9-3.9-7.8-3.2-8.2-6.3-16.6-6.3-16.6-.4-1 .2-1.9 1.3-1.9h48m0-2h-48c-1.2 0-2.2.5-2.8 1.4-.601.9-.7 2-.3 3.2 0 .1 3.199 8.5 6.399 16.6 1.601 4 4 8 4.101 8.1.899 1.5 2.899 2.7 4.699 2.7h48c1.301 0 2.301-.6 2.801-1.5s.5-2.1-.2-3.2c0 0-2.3-3.8-3.8-7.5-3.2-8-6.301-16.5-6.301-16.5-.699-1.9-2.699-3.3-4.599-3.3z"/><defs><path id="n" d="M1156 71c1.1 0 1.5-.8 1-1.7 0 0-2.4-3.9-3.9-7.8-3.199-8.2-6.3-16.6-6.3-16.6-.399-1-1.6-1.9-2.7-1.9h-48c-1.1 0-1.699.8-1.3 1.9 0 0 3.101 8.4 6.3 16.6 1.5 3.9 3.9 7.8 3.9 7.8.6.9 1.9 1.7 3 1.7h48z"/></defs><clipPath id="o"><use xlink:href="#n" overflow="visible"/></clipPath><g clip-path="url(#o)"><image overflow="visible" opacity=".45" enable-background="new" width="74" height="38" xlink:href="C0EDB4606F7F46CF.png" transform="translate(1089 40)"/><path fill="#6D6D6D" d="M1092 41v32h68v-32h-68zm64 30h-48c-1.1 0-2.5-.8-3-1.7 0 0-2.4-3.9-3.9-7.8-3.199-8.2-6.3-16.6-6.3-16.6-.399-1 .2-1.9 1.3-1.9h48c1.101 0 2.301.8 2.7 1.9 0 0 3.101 8.4 6.3 16.6 1.5 3.9 3.9 7.8 3.9 7.8.5.9.1 1.7-1 1.7z"/></g><path opacity=".7" fill="#fff" enable-background="new" d="M1255 119c0 1.1-.9 2-2 2h-22c-1.1 0-2-.9-2-2v-2c0-1.1.9-2 2-2h22c1.1 0 2 .9 2 2v2z"/><linearGradient id="p" gradientUnits="userSpaceOnUse" x1="1125.999" y1="551" x2="1125.999" y2="545" gradientTransform="matrix(1 0 0 -1 116 664)"><stop offset="0" stop-color="#494949"/><stop offset="1" stop-color="#6D6D6D"/></linearGradient><path fill="url(#p)" d="M1255 117c0 1.1-.9 2-2 2h-22c-1.1 0-2-.9-2-2v-2c0-1.1.9-2 2-2h22c1.1 0 2 .9 2 2v2z"/><path opacity=".45" fill="#fff" enable-background="new" d="M1253.5 40.5l-4.6 4.6-4-1.2-1-3.8 4.6-4.6-4.5-4.5h14v14l-4.5-4.5zm-23.5 4.6v13.9h14l-4.5-4.5 4.6-4.6-1-3.8-4-1.2-4.6 4.6-4.5-4.4z"/><path fill="#A4A4A4" d="M1253.5 38.5l-4.6 4.6-4-1.2-1-3.8 4.6-4.6-4.5-4.5h14v14l-4.5-4.5zm-23.5 4.6v13.9h14l-4.5-4.5 4.6-4.6-1-3.8-4-1.2-4.6 4.6-4.5-4.4z"/><defs><path id="q" d="M1253.5 38.5l-4.6 4.6-4-1.2-1-3.8 4.6-4.6-4.5-4.5h14v14l-4.5-4.5zm-23.5 4.6v13.9h14l-4.5-4.5 4.6-4.6-1-3.8-4-1.2-4.6 4.6-4.5-4.4z"/></defs><clipPath id="r"><use xlink:href="#q" overflow="visible"/></clipPath><g clip-path="url(#r)"><image overflow="visible" opacity=".45" enable-background="new" width="45" height="45" xlink:href="C0EDB4606F7F46C2.png" transform="matrix(.978 0 0 .978 1222.5 22.5)"/><path fill="#B3B3B3" d="M1224.1 23v40h40v-40h-40zm19.9 34h-13.9v-13.9l4.5 4.5 4.5-4.6 4 1.2 1 3.8-4.6 4.6 4.5 4.4zm14-14l-4.5-4.5-4.6 4.6-4-1.2-1-3.8 4.6-4.6-4.5-4.5h14v14z"/></g><path opacity=".7" fill="#fff" enable-background="new" d="M1255 109c0 1.1-.9 2-2 2h-22c-1.1 0-2-.9-2-2v-2c0-1.1.9-2 2-2h22c1.1 0 2 .9 2 2v2z"/><linearGradient id="s" gradientUnits="userSpaceOnUse" x1="1125.999" y1="561" x2="1125.999" y2="555" gradientTransform="matrix(1 0 0 -1 116 664)"><stop offset="0" stop-color="#494949"/><stop offset="1" stop-color="#6D6D6D"/></linearGradient><path fill="url(#s)" d="M1255 107c0 1.1-.9 2-2 2h-22c-1.1 0-2-.9-2-2v-2c0-1.1.9-2 2-2h22c1.1 0 2 .9 2 2v2z"/><path opacity=".7" fill="#fff" enable-background="new" d="M1254.4 129c-.2 1.1-1.2 2-2.301 2h-21c-1.1 0-2.1-.9-2.1-2v-2c0-1.1 1-2 2.1-2h22c1.101 0 1.9.9 1.7 2l-.399 2z"/><linearGradient id="t" gradientUnits="userSpaceOnUse" x1="1125.914" y1="541" x2="1125.914" y2="535" gradientTransform="matrix(1 0 0 -1 116 664)"><stop offset="0" stop-color="#494949"/><stop offset="1" stop-color="#6D6D6D"/></linearGradient><path fill="url(#t)" d="M1254.4 127c-.2 1.1-1.2 2-2.301 2h-21c-1.1 0-2.1-.9-2.1-2v-2c0-1.1 1-2 2.1-2h22c1.101 0 1.9.9 1.7 2l-.399 2z"/><image overflow="visible" opacity=".6" enable-background="new" width="30" height="30" xlink:href="C0EDB4606F7F46C5.png" transform="translate(601 34)"/><circle fill="#F5B958" cx="616" cy="47" r="12"/><image overflow="visible" enable-background="new" width="18" height="14" xlink:href="C0EDB4606F7F46C6.png" transform="translate(607 34)"/><ellipse fill="#FDFAEE" cx="616" cy="40" rx="3" ry="1"/><g opacity=".5"><defs><filter filterUnits="userSpaceOnUse" x="518" y="247" width="14" height="10"><feColorMatrix values="1 0 0 0 0 0 1 0 0 0 0 0 1 0 0 0 0 0 1 0"/></filter></defs><mask maskUnits="userSpaceOnUse" x="518" y="247" width="14" height="10" id="v"><image overflow="visible" filter="url(#u)" enable-background="new" width="18" height="14" xlink:href="E25B11F01D653A30.jpg" transform="translate(516 245)"/></mask><ellipse mask="url(#v)" fill="#fff" cx="525" cy="252" rx="7" ry="5"/></g><linearGradient id="w" gradientUnits="userSpaceOnUse" x1="500" y1="629" x2="500" y2="605" gradientTransform="matrix(1 0 0 -1 116 664)"><stop offset="0" stop-color="#75491B"/><stop offset="1" stop-color="#A3934D"/></linearGradient><path fill="url(#w)" d="M616 37c5.5 0 10 4.5 10 10s-4.5 10-10 10-10-4.5-10-10 4.5-10 10-10m0-2c-6.6 0-12 5.4-12 12s5.4 12 12 12 12-5.4 12-12-5.4-12-12-12z"/><image overflow="visible" opacity=".6" enable-background="new" width="30" height="30" xlink:href="E25B11F01D653A30.png" transform="translate(641 34)"/><circle fill="#8BC865" cx="656" cy="47" r="12"/><image overflow="visible" enable-background="new" width="18" height="14" xlink:href="E25B11F01D653A31.png" transform="translate(647 34)"/><ellipse fill="#FDFAEE" cx="656" cy="40" rx="3" ry="1"/><g opacity=".5"><defs><filter filterUnits="userSpaceOnUse" x="558" y="247" width="14" height="10"><feColorMatrix values="1 0 0 0 0 0 1 0 0 0 0 0 1 0 0 0 0 0 1 0"/></filter></defs><mask maskUnits="userSpaceOnUse" x="558" y="247" width="14" height="10" id="y"><image overflow="visible" filter="url(#x)" enable-background="new" width="18" height="14" xlink:href="E25B11F01D653A33.jpg" transform="translate(556 245)"/></mask><ellipse mask="url(#y)" fill="#fff" cx="565" cy="252" rx="7" ry="5"/></g><linearGradient id="z" gradientUnits="userSpaceOnUse" x1="540" y1="629" x2="540" y2="605" gradientTransform="matrix(1 0 0 -1 116 664)"><stop offset="0" stop-color="#75491B"/><stop offset="1" stop-color="#A3934D"/></linearGradient><path fill="url(#z)" d="M656 37c5.5 0 10 4.5 10 10s-4.5 10-10 10-10-4.5-10-10 4.5-10 10-10m0-2c-6.6 0-12 5.4-12 12s5.4 12 12 12 12-5.4 12-12-5.4-12-12-12z"/><linearGradient id="A" gradientUnits="userSpaceOnUse" x1="540" y1="629" x2="540" y2="605" gradientTransform="matrix(1 0 0 -1 116 664)"><stop offset="0" stop-color="#3F5E2D"/><stop offset="1" stop-color="#7E9462"/></linearGradient><path fill="url(#A)" d="M656 37c5.5 0 10 4.5 10 10s-4.5 10-10 10-10-4.5-10-10 4.5-10 10-10m0-2c-6.6 0-12 5.4-12 12s5.4 12 12 12 12-5.4 12-12-5.4-12-12-12z"/><image overflow="visible" opacity=".6" enable-background="new" width="30" height="30" xlink:href="E25B11F01D653A2E.png" transform="translate(561 34)"/><circle fill="#FF564D" cx="576" cy="47" r="12"/><image overflow="visible" enable-background="new" width="18" height="14" xlink:href="E25B11F01D653A2F.png" transform="translate(567 34)"/><ellipse fill="#FDFAEE" cx="576" cy="40" rx="3" ry="1"/><g opacity=".5"><defs><filter filterUnits="userSpaceOnUse" x="478" y="247" width="14" height="10"><feColorMatrix values="1 0 0 0 0 0 1 0 0 0 0 0 1 0 0 0 0 0 1 0"/></filter></defs><mask maskUnits="userSpaceOnUse" x="478" y="247" width="14" height="10" id="C"><image overflow="visible" filter="url(#B)" enable-background="new" width="18" height="14" xlink:href="E25B11F01D653A50.jpg" transform="translate(476 245)"/></mask><ellipse mask="url(#C)" fill="#fff" cx="485" cy="252" rx="7" ry="5"/></g><linearGradient id="D" gradientUnits="userSpaceOnUse" x1="460" y1="629" x2="460" y2="605" gradientTransform="matrix(1 0 0 -1 116 664)"><stop offset="0" stop-color="#653333"/><stop offset="1" stop-color="#A06665"/></linearGradient><path fill="url(#D)" d="M576 37c5.5 0 10 4.5 10 10s-4.5 10-10 10-10-4.5-10-10 4.5-10 10-10m0-2c-6.6 0-12 5.4-12 12s5.4 12 12 12 12-5.4 12-12-5.4-12-12-12z"/><path opacity=".25" enable-background="new" d="M1266 9c3.3 0 6 2.7 6 6v558.7c0 3.3-2.7 6-6 6h-720c-3.3 0-6-2.7-6-6v-558.7c0-3.3 2.7-6 6-6h720m0-2h-720c-4.4 0-8 3.6-8 8v558.7c0 4.399 3.6 8 8 8h720c4.4 0 8-3.601 8-8v-558.7c0-4.4-3.6-8-8-8z"/><text transform="translate(561.001 189.667)" font-family="'SourceCodePro-Regular'" font-size="16">[</text><text transform="translate(597.001 208.867)" font-family="'SourceCodePro-Regular'" font-size="16">{</text><text transform="translate(633.001 228.067)" font-family="'SourceCodePro-Regular'" font-size="16">&quot;id&quot;: 0,</text><text transform="translate(633.001 247.267)" font-family="'SourceCodePro-Regular'" font-size="16">&quot;groupId&quot;: &quot;461&quot;,</text><text transform="translate(633.001 266.467)" font-family="'SourceCodePro-Regular'" font-size="16">&quot;user&quot;: &quot;Harry&quot;,</text><text transform="translate(633.001 285.667)" font-family="'SourceCodePro-Regular'" font-size="16">&quot;city&quot;: &quot;Mexico City&quot;</text><text transform="translate(597.001 304.867)" font-family="'SourceCodePro-Regular'" font-size="16">},</text><text transform="translate(597.001 324.067)" font-family="'SourceCodePro-Regular'" font-size="16">{</text><text transform="translate(633.001 343.267)" font-family="'SourceCodePro-Regular'" font-size="16">&quot;id&quot;: 1,</text><text transform="translate(633.001 362.467)" font-family="'SourceCodePro-Regular'" font-size="16">&quot;groupId&quot;: &quot;461&quot;,</text><text transform="translate(633.001 381.667)" font-family="'SourceCodePro-Regular'" font-size="16">&quot;user&quot;: &quot;Oliver&quot;,</text><text transform="translate(633.001 400.867)" font-family="'SourceCodePro-Regular'" font-size="16">&quot;city&quot;: &quot;Shanghai&quot;</text><text transform="translate(597.001 420.067)" font-family="'SourceCodePro-Regular'" font-size="16">},</text><text transform="translate(597.001 439.267)" font-family="'SourceCodePro-Regular'" font-size="16">{</text><text transform="translate(633.001 458.467)" font-family="'SourceCodePro-Regular'" font-size="16">&quot;id&quot;: 2,</text><text transform="translate(633.001 477.667)" font-family="'SourceCodePro-Regular'" font-size="16">&quot;groupId&quot;: &quot;461&quot;,</text><text transform="translate(633.001 496.867)" font-family="'SourceCodePro-Regular'" font-size="16">&quot;user&quot;: &quot;Grace&quot;,</text><text transform="translate(633.001 516.067)" font-family="'SourceCodePro-Regular'" font-size="16">&quot;city&quot;: &quot;Moscow&quot;</text><text transform="translate(597.001 535.267)" font-family="'SourceCodePro-Regular'" font-size="16">}</text><text transform="translate(561.001 554.467)" font-family="'SourceCodePro-Regular'" font-size="16">]</text><text transform="translate(7.053 53)" fill="#000080" font-family="'SourceCodePro-Regular'" font-size="20">var</text><text transform="translate(55.053 53)" fill="#660E7A" font-family="'SourceCodePro-Regular'" font-size="20">g</text><text transform="translate(79.053 53)" font-family="'SourceCodePro-Regular'" font-size="20">=</text><text transform="translate(103.053 53)" font-family="'SourceCodePro-Regular'" font-size="20">require</text><text transform="translate(187.053 53)" font-family="'SourceCodePro-Regular'" font-size="20">(</text><text transform="translate(199.053 53)" fill="#008000" font-family="'SourceCodePro-Regular'" font-size="20">&apos;dyson-generators&apos;</text><text transform="translate(415.053 53)" font-family="'SourceCodePro-Regular'" font-size="20">);</text><text transform="translate(7.053 101)" fill="#000080" font-family="'SourceCodePro-Regular'" font-size="20">var</text><text transform="translate(55.053 101)" fill="#660E7A" font-family="'SourceCodePro-Regular'" font-size="20">users</text><text transform="translate(127.053 101)" font-family="'SourceCodePro-Regular'" font-size="20">= {</text><text transform="translate(55.053 125)" fill="#660E7A" font-family="'SourceCodePro-Regular'" font-size="20">path</text><text transform="translate(103.053 125)" font-family="'SourceCodePro-Regular'" font-size="20">:</text><text transform="translate(127.053 125)" fill="#008000" font-family="'SourceCodePro-Regular'" font-size="20">&apos;/users/:groupId</text><text transform="translate(319.053 125)" fill="#008000" font-family="'SourceCodePro-Regular'" font-size="20" letter-spacing="-1">&apos;</text><text transform="translate(329.453 125)" font-family="'SourceCodePro-Regular'" font-size="20">,</text><text transform="translate(55.053 149)" fill="#660E7A" font-family="'SourceCodePro-Regular'" font-size="20">collection</text><text transform="translate(175.053 149)" font-family="'SourceCodePro-Regular'" font-size="20">:</text><text transform="translate(199.053 149)" fill="#000080" font-family="'SourceCodePro-Regular'" font-size="20">true</text><text transform="translate(247.053 149)" font-family="'SourceCodePro-Regular'" font-size="20">,</text><text transform="translate(55.053 173)" fill="#660E7A" font-family="'SourceCodePro-Regular'" font-size="20">template</text><text transform="translate(151.053 173)" font-family="'SourceCodePro-Regular'" font-size="20">: {</text><text transform="translate(103.053 197)" fill="#660E7A" font-family="'SourceCodePro-Regular'" font-size="20">id</text><text transform="translate(127.053 197)" font-family="'SourceCodePro-Regular'" font-size="20">:</text><text transform="translate(151.053 197)" fill="#660E7A" font-family="'SourceCodePro-Regular'" font-size="20">g</text><text transform="translate(163.053 197)" font-family="'SourceCodePro-Regular'" font-size="20">.</text><text transform="translate(175.053 197)" fill="#7A7A43" font-family="'SourceCodePro-Regular'" font-size="20">id</text><text transform="translate(199.053 197)" font-family="'SourceCodePro-Regular'" font-size="20">,</text><text transform="translate(103.053 221)" fill="#660E7A" font-family="'SourceCodePro-Regular'" font-size="20">groupId</text><text transform="translate(187.053 221)" font-family="'SourceCodePro-Regular'" font-size="20">:</text><text transform="translate(211.053 221)" fill="#000080" font-family="'SourceCodePro-Regular'" font-size="20">function</text><text transform="translate(307.053 221)" font-family="'SourceCodePro-Regular'" font-size="20">(params) {</text><text transform="translate(151.053 245)" fill="#000080" font-family="'SourceCodePro-Regular'" font-size="20">return</text><text transform="translate(235.053 245)" font-family="'SourceCodePro-Regular'" font-size="20">params.</text><text transform="translate(319.053 245)" fill="#7A7A43" font-family="'SourceCodePro-Regular'" font-size="20">groupId</text><text transform="translate(403.053 245)" font-family="'SourceCodePro-Regular'" font-size="20">;</text><text transform="translate(103.053 269)" font-family="'SourceCodePro-Regular'" font-size="20">},</text><text transform="translate(103.053 293)" fill="#660E7A" font-family="'SourceCodePro-Regular'" font-size="20">user</text><text transform="translate(151.053 293)" font-family="'SourceCodePro-Regular'" font-size="20">:</text><text transform="translate(175.053 293)" fill="#660E7A" font-family="'SourceCodePro-Regular'" font-size="20">g</text><text transform="translate(187.053 293)" font-family="'SourceCodePro-Regular'" font-size="20">.name,</text><text transform="translate(103.053 317)" fill="#660E7A" font-family="'SourceCodePro-Regular'" font-size="20">city</text><text transform="translate(151.053 317)" font-family="'SourceCodePro-Regular'" font-size="20">:</text><text transform="translate(175.053 317)" fill="#660E7A" font-family="'SourceCodePro-Regular'" font-size="20">g</text><text transform="translate(187.053 317)" font-family="'SourceCodePro-Regular'" font-size="20">.address.</text><text transform="translate(295.053 317)" fill="#7A7A43" font-family="'SourceCodePro-Regular'" font-size="20">city</text><text transform="translate(55.053 341)" font-family="'SourceCodePro-Regular'" font-size="20">}</text><text transform="translate(7.053 365)" font-family="'SourceCodePro-Regular'" font-size="20">};</text><text transform="translate(7.053 413)" fill="#7A7A43" font-family="'SourceCodePro-Regular'" font-size="20">module</text><text transform="translate(79.053 413)" font-family="'SourceCodePro-Regular'" font-size="20">.</text><text transform="translate(91.053 413)" fill="#660E7A" font-family="'SourceCodePro-Regular'" font-size="20">exports</text><text transform="translate(187.053 413)" font-family="'SourceCodePro-Regular'" font-size="20">=</text><text transform="translate(211.053 413)" fill="#660E7A" font-family="'SourceCodePro-Regular'" font-size="20">users</text><text transform="translate(271.053 413)" font-family="'SourceCodePro-Regular'" font-size="20">;</text><path d="M220 468c0 42.6 93.9 77 210 77" fill="none"/><line stroke="#333" stroke-width="2" stroke-miterlimit="10" x1="476.5" y1="253" x2="568.7" y2="253" fill="none"/><polygon fill="#333" points="477.3,252 472.4,243.6 470.1,243.6 475,252 472.7,252 467.9,243.6 465.6,243.6 470.4,252 468.2,252 463.3,243.6 461,243.6 465.9,252 463.6,252 463.6,254 465.9,254 461,262.4 463.3,262.4 468.2,254 470.4,254 465.6,262.4 467.9,262.4 472.7,254 475,254 470.1,262.4 472.4,262.4 477.3,254"/><path fill="#333" d="M555 262.6c-.3-.5-.2-1.1.3-1.4l12.9-8.2-12.9-8.2c-.5-.3-.6-.9-.3-1.4s.9-.6 1.4-.3l14.199 9.1c.301.2.5.5.5.8s-.199.7-.5.8l-14.199 9.1c-.2.1-.4.2-.5.2-.4 0-.7-.2-.9-.5z"/><text transform="translate(754.102 66.481)" fill="#00032E" font-family="'LucidaGrande'" font-size="22">webpro/dyson</text><path d="M735.1 71.8c0-1.7 0-3.3-.699-4.9-.301-.7.3-.8.699-.9 1.5-.3 2.9-.9 4.2-1.9 2.601-2.1 3.3-7.4 1.601-10.2-.5-.8-.7-1.7-.601-2.7.101-1.1.2-2.5-.7-3.2-1-.7-2.1.1-3.1.6-1.2.7-2.3.9-3.6.6-1.7-.4-3.4-.4-5 0-1.301.3-2.4.2-3.5-.6-.7-.5-1.5-.7-2.301-.8-.699-.1-1.1.1-1.399.8-.3.8-.4 1.7-.3 2.5.199 1-.101 1.8-.601 2.7-2.7 4.8-.1 10.7 5.2 12 .5.1 1.3 0 1.3.7-.1.8-.3 1.6-1.3 1.9-1.4.5-3 0-4.1-1.4-.601-.8-1.2-1.5-2.101-1.8-.5-.1-1-.3-1.3.2s.3.8.6 1c.601.5 1.101 1.2 1.5 1.9.9 2.1 2.601 2.9 4.801 2.9 1.399 0 1.5.1 1.5 1.5v.6c-.101 1.4-.601 1.8-1.9 1.3-2.4-.8-4.5-2.3-6.2-4.1-6.6-6.9-6.6-17.9.2-24.6 5-5 11.2-6.3 17.8-4.2 6.8 2.2 10.8 7.1 11.9 14.1 1.2 8-3.2 15.6-10.5 18.6-.3.1-.7.3-1 .3-.8.1-1.2-.2-1.2-1 .001-.6.001-1.3.101-1.9z"/></svg>